<mxfile host="Electron" agent="Mozilla/5.0 (X11; Linux x86_64) AppleWebKit/537.36 (KHTML, like Gecko) draw.io/24.7.17 Chrome/128.0.6613.36 Electron/32.0.1 Safari/537.36" version="24.7.17">
  <diagram name="Page-1" id="IhADGQKQc7QEtHjRozba">
    <mxGraphModel dx="3668" dy="2082" grid="1" gridSize="10" guides="1" tooltips="1" connect="1" arrows="1" fold="1" page="0" pageScale="1" pageWidth="850" pageHeight="1100" math="0" shadow="0">
      <root>
        <mxCell id="0" />
        <mxCell id="1" parent="0" />
        <mxCell id="7ueF1fXJD6vw5-LiibAf-1" value="&lt;font style=&quot;font-size: 13px;&quot;&gt;Módulo de Controle&lt;/font&gt;" style="swimlane;whiteSpace=wrap;html=1;startSize=30;" parent="1" vertex="1">
          <mxGeometry x="-350" y="-109" width="421" height="999" as="geometry" />
        </mxCell>
        <mxCell id="7ueF1fXJD6vw5-LiibAf-2" value="UC-03&lt;br style=&quot;font-size: 14px;&quot;&gt;Logar-se" style="ellipse;whiteSpace=wrap;html=1;fontSize=14;fontStyle=0" parent="7ueF1fXJD6vw5-LiibAf-1" vertex="1">
          <mxGeometry x="114" y="69" width="194" height="87" as="geometry" />
        </mxCell>
        <mxCell id="7ueF1fXJD6vw5-LiibAf-3" value="UC-04&lt;div&gt;Configurar Quantidade de&lt;br&gt;Elevadores&lt;/div&gt;" style="ellipse;whiteSpace=wrap;html=1;fontSize=14;fontStyle=0" parent="7ueF1fXJD6vw5-LiibAf-1" vertex="1">
          <mxGeometry x="113" y="199" width="195" height="87" as="geometry" />
        </mxCell>
        <mxCell id="7ueF1fXJD6vw5-LiibAf-10" value="UC-06&lt;div&gt;Configurar Lista de Acesso a Andar VIP&lt;/div&gt;" style="ellipse;whiteSpace=wrap;html=1;fontSize=14;fontStyle=0" parent="7ueF1fXJD6vw5-LiibAf-1" vertex="1">
          <mxGeometry x="114" y="462" width="195" height="87" as="geometry" />
        </mxCell>
        <mxCell id="7ueF1fXJD6vw5-LiibAf-11" value="UC-07&lt;div&gt;Ativar Procedimento de Emergência Geral&lt;/div&gt;" style="ellipse;whiteSpace=wrap;html=1;fontSize=14;fontStyle=0" parent="7ueF1fXJD6vw5-LiibAf-1" vertex="1">
          <mxGeometry x="112.5" y="592" width="195" height="87" as="geometry" />
        </mxCell>
        <mxCell id="7ueF1fXJD6vw5-LiibAf-12" value="UC-08&lt;div&gt;Ativar Procedimento em Caso de Incêndio&lt;/div&gt;" style="ellipse;whiteSpace=wrap;html=1;fontSize=14;fontStyle=0" parent="7ueF1fXJD6vw5-LiibAf-1" vertex="1">
          <mxGeometry x="112.5" y="729" width="195" height="87" as="geometry" />
        </mxCell>
        <mxCell id="7ueF1fXJD6vw5-LiibAf-13" value="UC-09&lt;div&gt;Ativar Procedimento de Excesso de Carga&lt;/div&gt;&lt;div&gt;Máxima&lt;/div&gt;" style="ellipse;whiteSpace=wrap;html=1;fontSize=14;fontStyle=0" parent="7ueF1fXJD6vw5-LiibAf-1" vertex="1">
          <mxGeometry x="112.5" y="863" width="195" height="87" as="geometry" />
        </mxCell>
        <mxCell id="NG-tSZVlPT3nJzfpOF7C-1" value="UC-05&lt;div&gt;Configurar Distribuição dos Elevadores&lt;/div&gt;" style="ellipse;whiteSpace=wrap;html=1;fontSize=14;fontStyle=0" parent="7ueF1fXJD6vw5-LiibAf-1" vertex="1">
          <mxGeometry x="113" y="328" width="195" height="87" as="geometry" />
        </mxCell>
        <mxCell id="7ueF1fXJD6vw5-LiibAf-29" style="edgeStyle=none;shape=connector;curved=0;rounded=1;orthogonalLoop=1;jettySize=auto;html=1;entryX=1;entryY=0.5;entryDx=0;entryDy=0;strokeColor=default;align=center;verticalAlign=middle;fontFamily=Helvetica;fontSize=12;fontColor=default;labelBackgroundColor=default;startSize=8;endArrow=classic;endSize=8;" parent="1" source="7ueF1fXJD6vw5-LiibAf-6" target="7ueF1fXJD6vw5-LiibAf-2" edge="1">
          <mxGeometry relative="1" as="geometry">
            <Array as="points">
              <mxPoint x="20" y="60" />
              <mxPoint x="20" y="4" />
            </Array>
          </mxGeometry>
        </mxCell>
        <mxCell id="7ueF1fXJD6vw5-LiibAf-30" style="edgeStyle=none;shape=connector;curved=0;rounded=1;orthogonalLoop=1;jettySize=auto;html=1;entryX=1;entryY=0.5;entryDx=0;entryDy=0;strokeColor=default;align=center;verticalAlign=middle;fontFamily=Helvetica;fontSize=12;fontColor=default;labelBackgroundColor=default;startSize=8;endArrow=classic;endSize=8;" parent="1" source="7ueF1fXJD6vw5-LiibAf-6" target="7ueF1fXJD6vw5-LiibAf-3" edge="1">
          <mxGeometry relative="1" as="geometry">
            <Array as="points">
              <mxPoint x="20" y="60" />
              <mxPoint x="20" y="134" />
            </Array>
          </mxGeometry>
        </mxCell>
        <mxCell id="NG-tSZVlPT3nJzfpOF7C-2" style="edgeStyle=none;curved=0;rounded=1;orthogonalLoop=1;jettySize=auto;html=1;entryX=1;entryY=0.5;entryDx=0;entryDy=0;fontSize=12;startSize=8;endSize=8;" parent="1" source="7ueF1fXJD6vw5-LiibAf-6" target="NG-tSZVlPT3nJzfpOF7C-1" edge="1">
          <mxGeometry relative="1" as="geometry">
            <Array as="points">
              <mxPoint x="20" y="60" />
              <mxPoint x="20" y="263" />
            </Array>
          </mxGeometry>
        </mxCell>
        <mxCell id="7ueF1fXJD6vw5-LiibAf-6" value="Usuário Master" style="shape=umlActor;verticalLabelPosition=bottom;verticalAlign=top;html=1;outlineConnect=0;" parent="1" vertex="1">
          <mxGeometry x="173" y="30" width="30" height="60" as="geometry" />
        </mxCell>
        <mxCell id="7ueF1fXJD6vw5-LiibAf-27" style="edgeStyle=none;shape=connector;curved=0;rounded=1;orthogonalLoop=1;jettySize=auto;html=1;entryX=0;entryY=0.5;entryDx=0;entryDy=0;strokeColor=default;align=center;verticalAlign=middle;fontFamily=Helvetica;fontSize=12;fontColor=default;labelBackgroundColor=default;startSize=8;endArrow=classic;endSize=8;" parent="1" source="7ueF1fXJD6vw5-LiibAf-9" target="7ueF1fXJD6vw5-LiibAf-2" edge="1">
          <mxGeometry relative="1" as="geometry">
            <Array as="points">
              <mxPoint x="-300" y="60" />
              <mxPoint x="-300" y="4" />
            </Array>
          </mxGeometry>
        </mxCell>
        <mxCell id="7ueF1fXJD6vw5-LiibAf-28" style="edgeStyle=none;shape=connector;curved=0;rounded=1;orthogonalLoop=1;jettySize=auto;html=1;entryX=0;entryY=0.5;entryDx=0;entryDy=0;strokeColor=default;align=center;verticalAlign=middle;fontFamily=Helvetica;fontSize=12;fontColor=default;labelBackgroundColor=default;startSize=8;endArrow=classic;endSize=8;" parent="1" source="7ueF1fXJD6vw5-LiibAf-9" target="7ueF1fXJD6vw5-LiibAf-3" edge="1">
          <mxGeometry relative="1" as="geometry">
            <Array as="points">
              <mxPoint x="-300" y="60" />
              <mxPoint x="-300" y="134" />
            </Array>
          </mxGeometry>
        </mxCell>
        <mxCell id="NG-tSZVlPT3nJzfpOF7C-3" style="edgeStyle=none;shape=connector;curved=0;rounded=1;orthogonalLoop=1;jettySize=auto;html=1;entryX=0;entryY=0.5;entryDx=0;entryDy=0;strokeColor=default;align=center;verticalAlign=middle;fontFamily=Helvetica;fontSize=12;fontColor=default;labelBackgroundColor=default;startSize=8;endArrow=classic;endSize=8;" parent="1" source="7ueF1fXJD6vw5-LiibAf-9" target="NG-tSZVlPT3nJzfpOF7C-1" edge="1">
          <mxGeometry relative="1" as="geometry">
            <Array as="points">
              <mxPoint x="-300" y="60" />
              <mxPoint x="-300" y="263" />
            </Array>
          </mxGeometry>
        </mxCell>
        <mxCell id="7ueF1fXJD6vw5-LiibAf-9" value="Usuário Admin" style="shape=umlActor;verticalLabelPosition=bottom;verticalAlign=top;html=1;outlineConnect=0;" parent="1" vertex="1">
          <mxGeometry x="-453" y="30" width="30" height="60" as="geometry" />
        </mxCell>
        <mxCell id="7ueF1fXJD6vw5-LiibAf-24" style="edgeStyle=none;curved=1;rounded=0;orthogonalLoop=1;jettySize=auto;html=1;entryX=1;entryY=0.5;entryDx=0;entryDy=0;fontSize=12;startSize=8;endSize=8;" parent="1" source="7ueF1fXJD6vw5-LiibAf-16" target="7ueF1fXJD6vw5-LiibAf-10" edge="1">
          <mxGeometry relative="1" as="geometry" />
        </mxCell>
        <mxCell id="_b7nLUfbZx3cTQzQ7rva-1" style="edgeStyle=none;curved=0;rounded=1;orthogonalLoop=1;jettySize=auto;html=1;entryX=1;entryY=0.5;entryDx=0;entryDy=0;fontSize=12;startSize=8;endSize=8;" edge="1" parent="1" source="7ueF1fXJD6vw5-LiibAf-16" target="7ueF1fXJD6vw5-LiibAf-2">
          <mxGeometry relative="1" as="geometry">
            <Array as="points">
              <mxPoint x="50" y="397" />
              <mxPoint x="50" y="4" />
            </Array>
          </mxGeometry>
        </mxCell>
        <mxCell id="7ueF1fXJD6vw5-LiibAf-16" value="Usuário&lt;br&gt;&quot;dono de andar&quot;" style="shape=umlActor;verticalLabelPosition=bottom;verticalAlign=top;html=1;outlineConnect=0;" parent="1" vertex="1">
          <mxGeometry x="173" y="366.5" width="30" height="60" as="geometry" />
        </mxCell>
        <mxCell id="7ueF1fXJD6vw5-LiibAf-21" style="edgeStyle=none;curved=1;rounded=0;orthogonalLoop=1;jettySize=auto;html=1;entryX=1;entryY=0.5;entryDx=0;entryDy=0;fontSize=12;startSize=8;endSize=8;" parent="1" source="7ueF1fXJD6vw5-LiibAf-17" target="7ueF1fXJD6vw5-LiibAf-11" edge="1">
          <mxGeometry relative="1" as="geometry" />
        </mxCell>
        <mxCell id="7ueF1fXJD6vw5-LiibAf-17" value="Sistema/Alarme&lt;div&gt;de Emergência&lt;/div&gt;" style="shape=umlActor;verticalLabelPosition=bottom;verticalAlign=top;html=1;outlineConnect=0;" parent="1" vertex="1">
          <mxGeometry x="173" y="496.5" width="30" height="60" as="geometry" />
        </mxCell>
        <mxCell id="7ueF1fXJD6vw5-LiibAf-22" style="edgeStyle=none;curved=1;rounded=0;orthogonalLoop=1;jettySize=auto;html=1;entryX=1;entryY=0.5;entryDx=0;entryDy=0;fontSize=12;startSize=8;endSize=8;" parent="1" source="7ueF1fXJD6vw5-LiibAf-18" target="7ueF1fXJD6vw5-LiibAf-12" edge="1">
          <mxGeometry relative="1" as="geometry" />
        </mxCell>
        <mxCell id="7ueF1fXJD6vw5-LiibAf-18" value="Sistema/Alarme&lt;div&gt;de Incêndio&lt;/div&gt;" style="shape=umlActor;verticalLabelPosition=bottom;verticalAlign=top;html=1;outlineConnect=0;" parent="1" vertex="1">
          <mxGeometry x="173" y="633.5" width="30" height="60" as="geometry" />
        </mxCell>
        <mxCell id="7ueF1fXJD6vw5-LiibAf-23" style="edgeStyle=none;curved=1;rounded=0;orthogonalLoop=1;jettySize=auto;html=1;entryX=1;entryY=0.5;entryDx=0;entryDy=0;fontSize=12;startSize=8;endSize=8;" parent="1" source="7ueF1fXJD6vw5-LiibAf-19" target="7ueF1fXJD6vw5-LiibAf-13" edge="1">
          <mxGeometry relative="1" as="geometry" />
        </mxCell>
        <mxCell id="7ueF1fXJD6vw5-LiibAf-19" value="Balança do&lt;div&gt;Elevador&lt;/div&gt;" style="shape=umlActor;verticalLabelPosition=bottom;verticalAlign=top;html=1;outlineConnect=0;" parent="1" vertex="1">
          <mxGeometry x="173" y="767.5" width="30" height="60" as="geometry" />
        </mxCell>
      </root>
    </mxGraphModel>
  </diagram>
</mxfile>
